<?xml version="1.0" standalone="no"?>
<!DOCTYPE svg PUBLIC "-//W3C//DTD SVG 20010904//EN"
 "http://www.w3.org/TR/2001/REC-SVG-20010904/DTD/svg10.dtd">
<svg version="1.0" xmlns="http://www.w3.org/2000/svg"
 width="2000.000000pt" height="2000.000000pt" viewBox="0 0 2000.000000 2000.000000"
 preserveAspectRatio="xMidYMid meet">

<g transform="translate(0.000000,2000.000000) scale(0.100000,-0.100000)"
fill="#000000" stroke="none">
<path d="M5597 16916 c-9 -23 2 -26 105 -26 91 0 98 1 98 20 0 19 -7 20 -99
20 -76 0 -100 -3 -104 -14z"/>
<path d="M5985 16919 c-4 -6 -3 -15 2 -20 5 -5 289 -8 699 -7 605 3 689 5 689
18 0 13 -85 15 -692 18 -492 1 -694 -1 -698 -9z"/>
<path d="M3280 16430 l0 -310 1109 0 1109 1 6 24 c4 14 6 80 5 148 0 87 4 134
14 158 19 45 86 105 134 118 25 7 298 11 814 11 l775 0 55 -27 c96 -49 119
-106 119 -294 0 -106 3 -128 16 -133 21 -8 9107 -8 9128 0 14 5 16 42 16 310
l0 304 -6650 0 -6650 0 0 -310z m484 134 c19 -9 43 -33 55 -54 72 -128 -61
-267 -195 -204 -96 46 -99 208 -6 259 36 19 104 19 146 -1z m451 -15 c118
-104 27 -284 -129 -255 -70 13 -123 96 -109 170 15 74 69 116 150 116 44 0 58
-5 88 -31z m415 9 c45 -31 72 -84 67 -129 -11 -85 -56 -130 -139 -136 -63 -5
-108 18 -134 69 -23 43 -23 118 0 152 43 66 142 87 206 44z"/>
<path d="M13100 14894 l0 -924 -1375 0 -1375 0 0 -314 c0 -173 3 -321 6 -330
6 -14 136 -16 1375 -16 l1369 0 0 -325 0 -325 25 0 25 0 0 1178 c0 647 1 1356
2 1575 2 218 1 398 -2 398 -3 1 -15 3 -27 4 l-23 2 0 -923z m-152 -1276 l3
-118 -1221 0 -1220 0 0 120 0 120 1218 -2 1217 -3 3 -117z"/>
<path d="M9980 15570 c0 -183 1 -190 20 -190 19 0 20 7 20 190 0 183 -1 190
-20 190 -19 0 -20 -7 -20 -190z"/>
<path d="M16050 15571 c0 -149 3 -190 13 -194 8 -3 18 -2 23 1 5 4 9 91 9 195
l0 187 -22 0 -23 0 0 -189z"/>
<path d="M10450 15525 l0 -195 1275 0 1275 0 0 195 0 195 -1275 0 -1275 0 0
-195z"/>
<path d="M10770 14890 l0 -90 955 0 955 0 0 90 0 90 -955 0 -955 0 0 -90z"/>
<path d="M10770 14250 l0 -90 955 0 955 0 0 90 0 90 -955 0 -955 0 0 -90z"/>
<path d="M7900 14134 c-25 -9 -52 -23 -60 -32 -17 -20 -88 -38 -205 -52 -154
-20 -235 -53 -311 -129 -36 -36 -80 -109 -98 -165 -6 -17 -8 -17 -32 7 -55 55
-133 59 -231 11 -98 -47 -148 -138 -141 -258 3 -68 7 -80 43 -132 50 -74 124
-115 208 -117 l55 -2 12 -40 c39 -127 144 -257 256 -313 72 -36 165 -62 224
-62 l43 0 -27 -21 c-30 -24 -32 -62 -3 -67 12 -3 23 9 37 41 18 40 24 45 61
51 86 14 161 73 198 157 11 25 23 81 27 127 l7 82 -44 0 c-64 0 -160 48 -189
95 -42 68 -8 153 68 168 33 6 82 -8 126 -38 l36 -24 0 22 c0 13 -14 36 -31 53
-17 16 -48 52 -70 80 -48 62 -49 90 -10 187 15 40 32 88 36 107 l8 35 14 -45
c7 -24 18 -94 24 -155 6 -60 13 -135 16 -165 5 -51 6 -53 20 -35 22 28 123
237 123 254 0 10 4 11 13 3 8 -7 20 -4 42 13 35 29 26 44 -16 28 -29 -11 -31
-11 -25 10 3 12 9 52 12 89 11 108 -27 197 -98 234 -34 18 -61 17 -118 -2z"/>
<path d="M15910 13025 l0 -945 -1375 0 -1375 0 0 -330 0 -330 1400 0 1400 0 0
1275 0 1275 -25 0 -25 0 0 -945z m-160 -1285 l0 -120 -1220 0 -1220 0 0 120 0
120 1220 0 1220 0 0 -120z"/>
<path d="M13570 13645 l0 -85 960 0 960 0 0 85 0 85 -960 0 -960 0 0 -85z"/>
<path d="M8150 13693 c1 -5 9 -24 20 -43 16 -30 19 -32 26 -17 9 23 -11 67
-31 67 -8 0 -15 -3 -15 -7z"/>
<path d="M8235 13519 c4 -12 13 -35 19 -51 l12 -28 22 23 c21 22 21 23 3 39
-11 9 -29 22 -41 28 -20 11 -21 10 -15 -11z"/>
<path d="M13570 13010 l0 -90 960 0 960 0 0 90 0 90 -960 0 -960 0 0 -90z"/>
<path d="M10770 12985 l0 -85 955 0 955 0 0 85 0 85 -955 0 -955 0 0 -85z"/>
<path d="M8215 13020 c-3 -5 -2 -10 4 -10 5 0 13 5 16 10 3 6 2 10 -4 10 -5 0
-13 -4 -16 -10z"/>
<path d="M8165 13003 c-30 -7 -43 -23 -18 -23 11 0 26 7 33 15 7 8 11 14 9 14
-2 -1 -13 -3 -24 -6z"/>
<path d="M8034 12945 c16 -44 31 -59 21 -20 -4 17 -8 36 -8 43 0 6 -6 12 -12
12 -10 0 -10 -8 -1 -35z"/>
<path d="M8073 12974 c9 -3 15 -9 13 -12 -2 -4 12 -8 31 -9 48 -2 29 16 -23
22 -21 2 -31 2 -21 -1z"/>
<path d="M8085 12937 c-19 -15 -13 -37 9 -37 8 0 20 7 27 17 13 15 12 15 -8 5
-34 -18 -41 -14 -13 8 28 22 14 28 -15 7z"/>
<path d="M13570 12375 l0 -85 960 0 960 0 0 85 0 85 -960 0 -960 0 0 -85z"/>
<path d="M4340 11655 l0 -55 761 0 760 0 -3 53 -3 52 -757 3 -758 2 0 -55z"/>
<path d="M4340 11055 l0 -55 970 0 970 0 0 55 0 55 -970 0 -970 0 0 -55z"/>
<path d="M8930 10568 c0 -20 -8 -23 -135 -42 -207 -31 -377 -39 -733 -33 -191
3 -359 9 -374 13 -20 4 -28 2 -28 -6 0 -7 -23 -62 -50 -122 -56 -123 -102
-250 -162 -448 -64 -216 -89 -353 -95 -535 -6 -184 3 -276 50 -474 l32 -136
-1 -395 c-1 -422 -12 -614 -74 -1270 -40 -416 -48 -475 -75 -540 -46 -110
-118 -340 -170 -545 -115 -446 -191 -988 -211 -1507 l-7 -178 -23 0 c-23 0
-24 -4 -24 -59 0 -52 2 -59 23 -65 42 -12 352 -45 358 -38 4 4 14 29 23 56 16
50 14 58 -18 69 -8 3 31 137 254 887 32 107 90 305 130 440 39 135 80 272 90
305 11 33 111 377 224 765 113 388 224 766 246 840 l41 135 -6 -370 c-7 -489
-19 -681 -49 -836 -114 -585 -125 -1341 -29 -2157 6 -50 5 -52 -19 -52 l-25 0
11 -57 c11 -52 15 -59 41 -64 39 -9 270 -10 317 -3 32 6 37 10 43 43 3 20 9
46 12 58 4 18 1 23 -16 23 -13 0 -21 6 -21 17 0 9 36 233 80 497 328 1979 542
3479 600 4196 26 324 -48 1016 -144 1350 -33 115 -85 259 -86 238z m-1 -180
c11 -34 20 -63 18 -64 -6 -6 -230 -34 -324 -40 l-103 -7 0 67 0 66 40 0 c48 0
313 30 319 36 15 15 32 -4 50 -58z m-1182 25 c-3 -10 -11 -40 -18 -66 l-13
-48 -41 7 c-22 3 -41 7 -43 9 -2 1 9 28 25 59 25 52 30 56 61 56 28 0 33 -3
29 -17z m406 -10 l267 -6 0 -63 0 -64 -157 0 c-147 0 -441 15 -449 22 -1 2 4
32 13 67 14 56 18 62 37 56 12 -3 141 -9 289 -12z"/>
<path d="M4340 10455 l0 -55 835 0 835 0 0 55 0 55 -835 0 -835 0 0 -55z"/>
<path d="M4340 9855 l0 -55 761 0 760 0 -3 53 -3 52 -757 3 -758 2 0 -55z"/>
<path d="M12457 8813 c-4 -3 -7 -12 -7 -20 0 -11 123 -13 695 -13 688 0 695 0
695 20 0 20 -7 20 -688 20 -379 0 -692 -3 -695 -7z"/>
<path d="M14026 8805 c-3 -9 -6 -19 -6 -21 0 -2 48 -4 106 -4 95 0 105 2 102
18 -3 14 -17 17 -99 20 -81 2 -98 0 -103 -13z"/>
<path d="M7207 4091 c-14 -17 -27 -35 -29 -41 -2 -7 -37 -5 -108 6 -58 9 -145
17 -195 17 l-89 2 -47 -130 c-50 -136 -57 -176 -36 -193 6 -6 91 -18 187 -27
229 -21 285 -29 411 -60 137 -33 198 -33 237 0 35 30 51 81 31 99 -8 7 -46 22
-84 34 -89 27 -151 66 -198 124 -20 25 -37 48 -37 51 0 3 24 7 53 9 48 3 52 5
52 28 0 23 -4 25 -52 28 l-52 3 20 20 c27 27 21 53 -12 57 -19 2 -33 -5 -52
-27z m73 5 c0 -17 -56 -66 -76 -66 -19 0 -18 7 7 46 21 35 69 49 69 20z m65
-86 c0 -12 -13 -15 -59 -15 -36 0 -61 5 -63 12 -5 15 21 22 77 20 33 -2 45 -6
45 -17z"/>
<path d="M8550 4058 c-11 -18 -20 -38 -20 -44 0 -8 -59 -13 -190 -16 -105 -2
-195 -9 -200 -14 -14 -14 -71 -301 -64 -319 10 -25 39 -27 259 -16 125 6 240
6 285 1 131 -16 262 -12 290 7 39 26 49 45 50 85 0 40 -3 42 -75 53 -114 19
-196 58 -258 123 l-28 29 46 6 c55 6 69 17 60 47 -6 20 -12 22 -56 17 l-49 -6
16 24 c21 32 12 55 -21 55 -18 0 -31 -10 -45 -32z m70 10 c0 -14 -60 -78 -73
-78 -13 0 2 52 20 73 18 19 53 23 53 5z m78 -75 c5 -17 -44 -35 -87 -31 -43 4
-42 19 2 35 39 14 79 12 85 -4z"/>
</g>
</svg>
