<?xml version="1.0" standalone="no"?>
<!DOCTYPE svg PUBLIC "-//W3C//DTD SVG 20010904//EN"
 "http://www.w3.org/TR/2001/REC-SVG-20010904/DTD/svg10.dtd">
<svg version="1.0" xmlns="http://www.w3.org/2000/svg"
 width="2000.000000pt" height="2000.000000pt" viewBox="0 0 2000.000000 2000.000000"
 preserveAspectRatio="xMidYMid meet">

<g transform="translate(0.000000,2000.000000) scale(0.100000,-0.100000)"
fill="#000000" stroke="none">
<path d="M7141 16419 c-60 -12 -160 -60 -204 -98 -46 -41 -94 -136 -102 -205
-22 -172 99 -362 305 -480 318 -181 461 -334 481 -514 l8 -67 -4 82 c-3 69 -8
93 -38 155 -62 126 -175 243 -362 371 -168 114 -241 200 -271 317 -22 86 -8
155 44 213 52 57 105 78 218 84 86 5 97 8 114 31 26 32 25 63 -1 96 -18 23
-27 26 -82 25 -34 -1 -82 -5 -106 -10z"/>
<path d="M5503 16245 c-313 -68 -501 -410 -480 -874 13 -292 91 -510 320 -893
144 -241 204 -354 243 -461 37 -102 45 -105 14 -4 -28 91 -98 245 -179 394
-248 461 -308 630 -318 903 -11 279 43 497 159 648 166 214 476 228 594 26 18
-31 28 -66 33 -119 5 -50 13 -81 24 -92 23 -23 81 -22 108 3 19 17 21 27 17
99 -10 187 -149 339 -342 374 -75 14 -115 13 -193 -4z"/>
<path d="M7981 15909 c-104 -21 -181 -84 -229 -188 -21 -47 -27 -75 -30 -166
-2 -60 0 -126 6 -145 10 -33 10 -30 11 31 2 123 59 256 136 315 55 41 138 45
226 10 79 -31 112 -33 139 -6 22 22 26 69 10 100 -20 37 -184 67 -269 49z"/>
<path d="M10625 15618 c-31 -33 -33 -36 -7 -13 l34 30 -26 -59 c-15 -33 -24
-61 -22 -64 3 -2 19 1 36 6 20 8 39 8 56 2 14 -6 31 -10 37 -9 7 0 -4 6 -23
13 -34 12 -35 14 -40 75 l-5 62 -40 -43z"/>
<path d="M10460 15583 c1 -5 13 -31 28 -58 26 -50 28 -51 60 -41 17 5 32 12
32 16 0 5 -23 23 -51 41 -44 28 -49 34 -33 40 16 6 14 8 -8 8 -16 1 -28 -2
-28 -6z"/>
<path d="M11280 15570 c-26 -26 -34 -63 -21 -89 6 -11 36 -36 66 -57 136 -90
214 -236 249 -464 19 -122 24 -187 37 -450 16 -334 42 -496 103 -634 32 -73
40 -72 15 2 -51 144 -53 175 -54 702 l0 495 -27 96 c-46 170 -124 295 -237
379 -60 45 -100 51 -131 20z"/>
<path d="M10538 15573 c7 -3 16 -2 19 1 4 3 -2 6 -13 5 -11 0 -14 -3 -6 -6z"/>
<path d="M10760 15500 c10 -7 -13 -8 -73 -4 l-88 7 -49 -48 c-26 -26 -53 -44
-59 -41 -7 5 -8 1 -4 -10 4 -11 2 -15 -4 -11 -6 4 -14 0 -17 -9 -5 -14 -1 -16
24 -10 16 3 43 9 59 12 25 5 32 1 61 -40 19 -25 37 -46 41 -46 4 0 10 21 14
48 10 83 16 93 70 114 60 24 64 26 45 38 -20 13 -39 12 -20 0z"/>
<path d="M4500 15433 c-24 -26 -26 -30 -7 -13 l29 25 -28 -65 c-26 -64 -106
-158 -146 -173 -31 -11 -21 -30 12 -23 17 3 43 9 59 12 25 5 32 1 61 -40 19
-25 37 -46 41 -46 4 0 10 21 14 48 10 84 16 93 73 115 60 23 66 32 20 32 -18
1 -60 2 -93 3 -58 3 -59 3 -35 17 14 8 38 12 55 10 23 -4 25 -3 10 3 -16 7
-21 21 -25 71 l-5 62 -35 -38z"/>
<path d="M6416 15344 c-225 -35 -426 -69 -446 -74 -47 -13 -115 -72 -142 -124
-16 -29 -22 -60 -22 -108 -1 -40 -6 -69 -12 -72 -15 -6 -5 -56 10 -56 8 0 23
-70 44 -212 18 -116 34 -213 36 -215 4 -4 169 21 886 132 233 36 426 68 428
70 4 3 -57 426 -62 431 -3 4 -773 -116 -790 -122 -9 -3 -15 5 -18 25 -4 29 -4
30 56 40 34 6 93 15 131 20 39 6 187 28 329 51 143 22 265 40 272 40 17 0 9
50 -16 100 -41 81 -137 141 -225 139 -27 -1 -234 -30 -459 -65z m409 -348 c24
-24 25 -55 2 -83 -15 -21 -75 -16 -87 6 -17 32 -12 69 12 85 31 22 45 20 73
-8z"/>
<path d="M6781 14974 c0 -11 3 -14 6 -6 3 7 2 16 -1 19 -3 4 -6 -2 -5 -13z"/>
<path d="M4330 15393 c1 -5 13 -31 28 -58 26 -50 28 -51 60 -41 17 5 32 12 32
16 0 5 -23 23 -52 41 -49 32 -50 34 -27 40 22 6 21 7 -8 8 -18 1 -33 -2 -33
-6z"/>
<path d="M4408 15383 c7 -3 16 -2 19 1 4 3 -2 6 -13 5 -11 0 -14 -3 -6 -6z"/>
<path d="M9465 15206 c-644 -64 -1431 -306 -1632 -501 -53 -51 -63 -77 -47
-120 8 -21 65 -49 134 -66 82 -21 447 -18 620 4 552 73 1064 212 1395 380 149
76 225 143 225 199 0 45 -31 70 -116 94 -79 22 -402 27 -579 10z m-129 -355
c-9 -15 -155 -69 -256 -96 -131 -34 -270 -55 -365 -55 -68 0 -77 2 -65 14 37
34 237 97 405 127 105 18 290 25 281 10z"/>
<path d="M12403 14655 c-278 -78 -453 -337 -453 -669 0 -113 17 -209 61 -341
31 -93 57 -148 286 -595 143 -281 180 -414 170 -609 -6 -123 -25 -200 -69
-291 -37 -76 -126 -170 -208 -219 -30 -18 -46 -30 -35 -26 47 15 131 74 183
130 147 158 202 443 136 704 -33 133 -71 226 -209 511 -196 407 -220 482 -220
705 0 118 4 163 19 210 44 143 125 253 235 319 159 97 370 86 480 -25 133
-132 79 -329 -90 -329 -66 0 -93 -21 -93 -75 0 -43 17 -62 68 -76 84 -23 205
29 266 113 61 83 78 155 60 245 -27 132 -112 238 -238 295 -60 28 -78 32 -182
35 -80 2 -131 -2 -167 -12z"/>
<path d="M4441 14639 c-77 -13 -184 -52 -249 -91 -84 -49 -229 -198 -275 -283
-62 -113 -80 -177 -85 -299 -5 -131 12 -209 67 -294 50 -77 152 -168 231 -206
61 -29 73 -31 175 -31 101 0 115 2 165 28 145 74 229 223 217 382 -9 117 -48
193 -114 221 -42 18 -67 18 -110 -3 -67 -31 -92 -116 -58 -196 32 -76 8 -144
-60 -177 -38 -19 -49 -20 -86 -10 -126 34 -212 147 -212 280 0 213 175 430
398 496 231 68 562 -54 715 -265 145 -199 214 -389 340 -941 130 -567 189
-774 302 -1045 51 -123 183 -380 219 -425 11 -14 -3 18 -30 70 -179 342 -280
686 -396 1350 -113 649 -189 892 -346 1100 -119 158 -293 270 -504 325 -75 20
-233 27 -304 14z"/>
<path d="M9184 14116 c-51 -23 -60 -81 -18 -123 23 -23 30 -25 77 -18 116 18
183 -1 253 -69 44 -43 54 -60 65 -110 19 -85 3 -145 -85 -321 -66 -134 -97
-210 -95 -240 0 -5 8 10 18 35 9 25 61 109 114 187 72 107 101 160 118 214 59
195 -36 370 -240 439 -69 23 -161 26 -207 6z"/>
<path d="M5621 13904 c0 -11 3 -14 6 -6 3 7 2 16 -1 19 -3 4 -6 -2 -5 -13z"/>
<path d="M3205 13546 c-38 -42 -75 -76 -84 -77 -11 0 -10 -3 4 -9 12 -4 34
-26 49 -49 16 -23 30 -41 31 -41 2 0 16 47 31 105 16 57 31 102 34 99 3 -3 10
-33 17 -67 l12 -62 -4 65 c-2 36 -8 76 -13 89 -8 22 -11 20 -77 -53z"/>
<path d="M10086 13493 c-3 -21 -6 -66 -6 -100 0 -40 -4 -63 -12 -66 -7 -3 -1
-6 13 -6 14 -1 40 -6 58 -12 18 -6 35 -9 38 -6 3 3 -8 43 -25 89 -17 46 -34
92 -38 103 -4 11 24 -9 62 -45 38 -36 57 -51 44 -35 -49 60 -104 115 -116 115
-6 0 -14 -17 -18 -37z"/>
<path d="M2966 13458 c9 -18 30 -52 45 -75 16 -23 29 -44 29 -48 0 -3 -22 -39
-50 -80 -27 -41 -50 -77 -50 -80 0 -10 66 -4 144 13 l79 18 62 -71 c34 -38 66
-70 71 -70 5 0 10 46 12 102 l3 102 62 21 c34 11 73 27 85 34 l24 13 -24 15
c-28 17 -108 50 -108 43 0 -2 17 -14 38 -25 l37 -20 -102 7 c-57 3 -103 3
-103 -1 0 -3 15 -23 34 -43 32 -36 34 -42 40 -138 l6 -100 -31 95 c-67 211
-50 186 -174 249 -103 52 -108 55 -80 62 26 6 23 7 -18 8 l-48 1 17 -32z"/>
<path d="M3058 13473 c6 -2 18 -2 25 0 6 3 1 5 -13 5 -14 0 -19 -2 -12 -5z"/>
<path d="M3301 13424 c0 -11 3 -14 6 -6 3 7 2 16 -1 19 -3 4 -6 -2 -5 -13z"/>
<path d="M10325 13414 l-50 -13 48 5 c26 3 47 3 47 1 0 -2 -38 -28 -86 -57
-90 -57 -92 -62 -16 -75 38 -6 50 -15 104 -81 34 -41 63 -74 65 -74 6 0 -32
55 -74 107 l-34 43 39 57 c21 32 44 68 51 81 11 20 10 22 -16 21 -15 0 -50 -7
-78 -15z"/>
<path d="M10070 13269 c-52 -10 -104 -18 -114 -18 -20 -1 -20 -1 0 14 15 13
13 13 -15 -1 -33 -16 -34 -17 -16 -30 16 -12 67 -33 143 -59 8 -3 12 -29 12
-82 0 -140 1 -140 94 -40 l81 87 75 -20 c126 -33 133 -28 44 37 -44 32 -101
75 -129 95 -57 43 -48 42 -175 17z"/>
<path d="M14160 12910 l0 -50 85 0 85 0 0 -225 0 -225 65 0 65 0 0 225 0 225
85 0 85 0 0 50 0 50 -235 0 -235 0 0 -50z"/>
<path d="M14740 12920 l0 -40 270 0 270 0 0 40 0 40 -270 0 -270 0 0 -40z"/>
<path d="M8245 12803 c-3 -71 -7 -134 -8 -141 -1 -7 -27 9 -59 37 -56 51 -79
62 -77 39 1 -21 149 -142 159 -132 5 5 10 67 11 137 0 70 4 127 7 127 3 0 27
-18 54 -40 l47 -41 69 30 69 29 -23 -57 c-48 -120 -56 -327 -19 -534 19 -106
32 -144 45 -131 6 6 5 35 -5 79 -27 134 -38 250 -32 360 6 117 22 188 64 273
15 28 24 54 21 57 -3 3 -46 -12 -95 -33 l-89 -39 -59 54 c-33 29 -63 53 -66
53 -4 0 -10 -57 -14 -127z"/>
<path d="M6436 12806 c-36 -44 -36 -46 -20 -71 17 -26 34 -33 34 -14 0 6 8 36
17 67 l17 57 7 -40 7 -40 -2 39 c0 22 -6 41 -12 43 -6 2 -28 -17 -48 -41z"/>
<path d="M6296 12748 c9 -18 23 -40 31 -50 13 -14 10 -22 -23 -67 -20 -29 -35
-54 -32 -56 2 -2 35 1 72 7 l69 11 43 -49 c24 -27 43 -47 43 -44 1 3 -10 41
-24 85 -31 99 -31 104 -1 76 15 -14 22 -30 19 -40 -5 -15 -5 -15 8 0 8 9 38
24 67 34 53 17 59 28 22 38 -13 3 -18 1 -13 -5 3 -6 2 -9 -3 -5 -5 3 -36 7
-69 8 -46 2 -75 11 -125 38 -36 19 -66 39 -68 43 -2 4 -10 8 -18 8 -12 0 -12
-5 2 -32z"/>
<path d="M14740 12710 l0 -40 270 0 270 0 0 40 0 40 -270 0 -270 0 0 -40z"/>
<path d="M7778 12639 l-3 -80 -84 -38 c-47 -20 -86 -42 -88 -48 -2 -6 25 -24
60 -41 197 -92 370 -247 452 -404 17 -32 36 -58 43 -58 18 0 8 28 -35 102 -79
135 -213 260 -379 353 l-87 49 71 32 72 33 0 65 c0 36 3 66 8 66 4 0 47 -31
96 -70 49 -38 95 -70 103 -70 9 0 13 14 13 43 0 23 3 59 6 80 5 29 3 37 -8 37
-11 0 -17 -15 -21 -51 -4 -29 -9 -54 -11 -57 -3 -2 -46 28 -95 67 -50 39 -95
71 -100 71 -6 0 -11 -36 -13 -81z"/>
<path d="M10000 12579 c-298 -44 -520 -333 -596 -774 -11 -61 -18 -204 -24
-450 -6 -260 -13 -385 -25 -450 -48 -264 -132 -457 -257 -590 -105 -113 -216
-164 -357 -166 -69 -1 -73 -2 -41 -11 58 -17 207 -4 270 22 135 58 243 152
337 297 138 212 231 510 263 848 6 66 18 169 26 228 45 326 167 579 328 676
128 77 238 25 348 -163 46 -78 134 -117 217 -96 94 24 151 96 151 192 0 73
-41 142 -149 248 -149 148 -322 215 -491 189z"/>
<path d="M14740 12500 l0 -40 270 0 270 0 0 40 0 40 -270 0 -270 0 0 -40z"/>
<path d="M3520 12390 c-12 -8 -10 -10 10 -10 14 0 58 -16 98 -35 67 -32 72
-33 72 -14 0 35 -144 82 -180 59z"/>
<path d="M14160 12295 l0 -35 560 0 560 0 0 35 0 35 -560 0 -560 0 0 -35z"/>
<path d="M3775 12279 c-8 -12 11 -29 33 -29 19 0 10 34 -10 38 -9 2 -19 -2
-23 -9z"/>
<path d="M8872 12246 c-32 -88 -200 -226 -387 -316 -136 -66 -247 -103 -372
-125 -107 -19 -164 -19 -233 -1 -30 8 -56 13 -58 11 -2 -1 11 -14 28 -28 16
-14 30 -33 30 -43 0 -9 15 -31 33 -48 19 -17 37 -44 41 -59 4 -16 20 -36 36
-45 19 -11 30 -25 30 -39 0 -12 14 -33 33 -48 17 -15 34 -39 37 -53 7 -37 51
-64 112 -69 29 -3 69 -12 88 -21 43 -21 206 -23 265 -4 164 53 295 149 339
250 10 20 20 42 24 48 4 6 22 32 40 59 35 53 40 90 17 121 -9 12 -12 31 -9 52
4 21 1 40 -10 57 -9 13 -16 43 -16 65 0 23 -5 51 -12 63 -6 12 -11 38 -9 57 1
19 -4 44 -12 54 -9 13 -13 33 -9 58 6 47 -10 50 -26 4z"/>
<path d="M3837 12243 c-11 -10 13 -33 34 -33 23 0 25 25 3 34 -20 8 -29 8 -37
-1z"/>
<path d="M3910 12196 c0 -18 27 -39 40 -31 15 9 12 32 -6 39 -24 9 -34 7 -34
-8z"/>
<path d="M3980 12151 c0 -19 35 -39 48 -26 9 9 -13 40 -32 43 -10 2 -16 -3
-16 -17z"/>
<path d="M4050 12106 c0 -15 37 -32 47 -22 3 3 3 12 0 21 -8 19 -47 20 -47 1z"/>
<path d="M14160 12085 l0 -35 560 0 560 0 0 35 0 35 -560 0 -560 0 0 -35z"/>
<path d="M4120 12065 c0 -20 39 -40 53 -26 7 7 6 15 -3 26 -16 19 -50 20 -50
0z"/>
<path d="M4195 12030 c-8 -13 13 -40 31 -40 22 0 28 22 9 37 -23 16 -32 16
-40 3z"/>
<path d="M4260 11979 c0 -8 -16 -10 -50 -6 -61 7 -67 -9 -18 -45 28 -20 56
-25 212 -39 116 -10 181 -20 184 -28 11 -32 55 -71 82 -71 37 0 70 41 70 86 0
19 3 34 6 34 3 0 23 -13 43 -29 34 -27 47 -30 184 -44 139 -13 148 -15 168
-40 12 -16 30 -27 44 -27 28 0 55 34 55 68 l0 24 42 -31 c32 -24 53 -31 87
-32 26 0 125 -8 223 -18 153 -15 184 -21 232 -46 31 -16 59 -26 62 -22 3 3
-14 26 -39 50 -32 32 -60 50 -98 61 -32 10 -254 34 -547 60 -310 28 -498 49
-507 56 -10 8 -30 10 -61 5 -66 -10 -307 14 -317 31 -10 17 -57 19 -57 3z"/>
<path d="M3705 11945 c-48 -7 -87 -9 -97 -4 -27 14 -57 11 -86 -10 -25 -17
-132 -37 -257 -47 -85 -7 -321 -47 -332 -56 -24 -19 -13 -45 31 -82 48 -39
104 -53 73 -18 -36 39 -23 49 72 56 58 5 97 4 110 -3 43 -23 71 -8 80 43 l6
37 35 -26 c32 -25 41 -26 111 -23 54 3 82 1 95 -9 47 -34 104 3 104 67 0 22 3
40 6 40 3 0 26 -16 51 -35 40 -31 53 -35 102 -34 31 0 77 4 104 7 l47 7 -81
50 c-45 28 -85 51 -88 51 -3 1 -42 -4 -86 -11z"/>
<path d="M14160 11875 l0 -35 560 0 560 0 0 35 0 35 -560 0 -560 0 0 -35z"/>
<path d="M7197 11860 c-51 -16 -99 -61 -124 -118 -21 -45 -25 -64 -20 -113 11
-125 77 -189 313 -305 226 -111 272 -165 261 -303 -5 -74 8 -54 19 28 16 120
-52 207 -257 331 -194 116 -262 200 -229 281 32 77 87 89 149 34 44 -40 86
-46 122 -16 29 24 31 81 4 112 -54 59 -168 92 -238 69z"/>
<path d="M4705 11700 c3 -5 15 -10 26 -10 10 0 19 5 19 10 0 6 -12 10 -26 10
-14 0 -23 -4 -19 -10z"/>
<path d="M4765 11679 c-6 -9 21 -38 37 -39 14 0 19 21 8 35 -15 18 -36 19 -45
4z"/>
<path d="M4836 11635 c-4 -10 3 -19 19 -27 30 -13 44 -4 29 20 -15 23 -40 27
-48 7z"/>
<path d="M11252 11619 c-498 -44 -949 -269 -1198 -598 -78 -103 -164 -273
-198 -393 -46 -159 -59 -290 -53 -518 11 -421 105 -797 372 -1480 113 -291
155 -417 185 -560 45 -219 50 -362 20 -645 -24 -229 -25 -387 -4 -515 l15 -95
-149 -305 c-82 -168 -192 -393 -244 -500 -98 -203 -201 -390 -247 -447 -14
-18 -42 -38 -61 -45 -57 -18 -738 -2 -1125 27 l-80 6 -83 -337 c-45 -186 -79
-341 -75 -345 10 -9 483 -98 758 -143 384 -63 528 -79 710 -80 l170 -1 69 33
c229 108 498 392 896 947 67 94 125 170 128 169 4 0 38 -15 75 -32 152 -72
367 -95 552 -58 44 9 81 13 83 8 2 -4 52 -110 110 -237 l107 -230 165 -62 c91
-35 176 -69 190 -76 24 -12 26 -20 55 -259 l30 -247 455 2 455 2 310 43 c171
23 435 60 588 82 153 22 282 40 287 40 4 0 32 -38 61 -85 l54 -85 717 0 c394
0 723 3 731 6 11 4 -10 58 -97 247 -62 133 -135 294 -163 357 l-51 115 -6 140
c-20 462 -167 1223 -397 2060 -172 627 -244 784 -449 978 -98 93 -184 145
-315 190 -81 27 -105 31 -243 35 -184 5 -729 -42 -748 -65 -31 -37 -69 -598
-59 -878 27 -764 162 -1383 446 -2037 39 -90 73 -170 75 -178 4 -12 -11 -20
-68 -34 -666 -162 -1089 -256 -1092 -242 -16 59 -135 405 -199 576 -44 118
-100 276 -124 350 -69 215 -176 590 -168 590 2 0 27 -45 55 -99 28 -55 83
-147 121 -206 l70 -106 -27 -54 c-58 -120 -39 -180 57 -180 63 0 84 20 82 76
-1 23 -14 65 -28 94 -14 29 -25 54 -25 57 0 2 36 65 81 139 319 530 540 1163
612 1759 23 188 31 338 18 354 -8 9 -8 56 -1 162 26 397 1 898 -61 1224 -41
214 -102 420 -167 563 -84 184 -262 430 -441 607 -262 261 -528 390 -804 390
-52 0 -138 7 -193 15 -127 19 -390 26 -522 14z m37 -907 c6 -31 11 -74 11 -98
l0 -42 78 20 c42 10 113 37 157 58 l80 40 50 -54 c83 -90 131 -199 195 -437
50 -186 72 -240 120 -283 47 -42 84 -51 157 -36 90 19 88 15 89 127 3 252 105
388 265 354 70 -15 98 -32 152 -90 72 -77 99 -145 105 -266 7 -153 -34 -288
-116 -377 l-39 -43 -6 -125 c-4 -90 -14 -156 -34 -238 l-29 -113 35 -52 c143
-216 341 -373 532 -424 71 -19 173 -22 263 -10 l59 9 -7 -109 c-33 -544 -196
-1130 -462 -1662 -96 -193 -222 -412 -241 -418 -15 -5 -141 193 -210 332 -109
217 -151 342 -202 596 -51 249 -51 483 0 718 16 74 18 99 10 119 -7 13 -14 22
-17 20 -12 -13 -56 -253 -61 -341 -3 -54 -9 -100 -13 -102 -4 -2 -12 24 -18
58 -6 34 -24 141 -41 237 -17 96 -31 183 -31 192 0 10 17 23 45 34 25 9 45 21
45 26 0 12 -110 128 -122 128 -5 0 -28 -13 -51 -29 -108 -74 -284 -142 -417
-160 -97 -14 -244 -6 -340 19 -302 77 -505 271 -717 685 -99 194 -205 471
-229 599 -6 36 -5 39 12 31 10 -4 31 -10 47 -13 23 -4 27 -9 27 -38 0 -71 53
-144 105 -144 81 0 77 160 -6 222 -24 18 -30 18 -111 5 l-87 -13 -15 70 c-35
163 -39 202 -22 235 24 45 74 100 118 127 28 18 38 31 38 49 0 54 -60 44 -131
-22 l-49 -46 0 60 c0 56 2 61 43 99 66 63 147 128 208 167 50 31 59 42 75 89
10 29 20 89 23 133 l6 79 32 -59 c17 -33 37 -79 44 -102 7 -24 15 -43 18 -43
3 0 34 9 68 20 35 11 116 29 180 40 65 12 127 23 139 25 49 10 103 167 105
300 l1 80 38 -79 c21 -44 43 -104 49 -134z"/>
<path d="M11080 10411 c-97 -31 -141 -71 -120 -111 14 -26 21 -26 95 11 67 33
130 40 216 25 42 -8 48 -6 58 13 19 34 -2 58 -59 70 -71 15 -126 13 -190 -8z"/>
<path d="M11105 9986 c-60 -10 -67 -13 -50 -23 11 -6 35 -14 53 -18 27 -6 32
-11 32 -36 0 -97 95 -185 143 -131 40 44 28 137 -25 191 -33 34 -43 35 -153
17z"/>
<path d="M11605 9378 c-23 -109 -133 -254 -251 -328 -35 -22 -64 -44 -64 -50
0 -44 106 13 201 109 79 79 140 182 154 264 6 33 5 37 -13 37 -15 0 -22 -9
-27 -32z"/>
<path d="M4913 11594 c-6 -16 11 -34 35 -34 19 0 14 28 -8 40 -16 9 -22 8 -27
-6z"/>
<path d="M4980 11545 c0 -8 9 -19 20 -25 16 -9 22 -8 27 6 3 9 0 20 -8 25 -21
13 -39 11 -39 -6z"/>
<path d="M5398 11470 l-88 -79 60 -41 c33 -22 60 -43 60 -47 0 -5 -108 3 -160
13 -14 3 18 -17 70 -44 l95 -49 190 -12 c105 -7 203 -14 219 -17 l30 -4 -24
25 c-29 31 -63 40 -205 56 -60 6 -115 15 -122 18 -8 4 2 40 33 116 24 60 44
112 44 115 0 12 -51 30 -83 30 -26 0 -49 -16 -119 -80z"/>
<path d="M5052 11504 c4 -24 35 -41 48 -28 8 8 7 16 -5 28 -21 21 -47 21 -43
0z"/>
<path d="M5127 11473 c-12 -12 -7 -31 10 -37 24 -9 39 9 23 29 -14 16 -23 19
-33 8z"/>
<path d="M5036 11254 c-21 -8 -45 -19 -53 -26 -12 -10 -11 -13 6 -23 16 -8 55
-8 149 1 70 7 136 13 147 14 27 2 -153 50 -185 49 -14 0 -43 -7 -64 -15z"/>
<path d="M3460 11106 c-131 -37 -188 -117 -127 -174 33 -31 77 -28 121 7 50
40 99 55 171 55 97 -1 166 -47 216 -144 22 -42 24 -60 30 -275 3 -126 10 -241
16 -255 8 -19 9 -9 5 47 -3 49 2 113 18 204 30 180 26 273 -18 362 -59 119
-158 179 -302 184 -49 1 -104 -3 -130 -11z"/>
<path d="M7089 11042 l-75 -57 24 -54 25 -54 33 59 c18 32 42 75 53 94 l20 35
2 -75 c2 -74 2 -75 9 -25 13 80 12 135 -2 135 -7 0 -47 -26 -89 -58z"/>
<path d="M6840 11038 c1 -7 14 -44 29 -83 l28 -70 -71 -67 c-86 -82 -83 -88
59 -88 l101 0 39 -81 c22 -44 45 -85 52 -90 13 -11 24 21 47 136 l13 60 86 10
c47 6 89 14 94 18 8 9 -9 24 -87 78 l-45 30 45 -40 c25 -23 43 -41 40 -41 -3
0 -47 14 -99 30 -52 16 -97 28 -99 25 -2 -2 8 -25 23 -51 27 -46 27 -47 15
-123 -21 -126 -27 -123 -35 19 -4 74 -10 142 -14 151 -3 9 -48 51 -98 93 -51
42 -93 78 -93 80 0 2 10 2 23 0 20 -4 21 -4 2 5 -29 14 -55 13 -55 -1z"/>
<path d="M6950 11010 c19 -11 40 -19 45 -19 6 0 -6 8 -25 19 -19 11 -39 19
-45 19 -5 0 6 -8 25 -19z"/>
<path d="M8638 10153 c7 -3 16 -2 19 1 4 3 -2 6 -13 5 -11 0 -14 -3 -6 -6z"/>
<path d="M3139 10045 c-124 -45 -216 -130 -278 -257 -97 -197 -95 -421 5 -626
39 -81 60 -109 138 -187 55 -56 119 -109 163 -134 151 -89 338 -142 493 -139
l85 1 -85 7 c-505 46 -861 427 -787 843 39 219 180 382 345 395 60 5 127 -16
160 -51 35 -37 65 -116 59 -154 -15 -90 -144 -176 -161 -108 -16 63 -87 85
-133 39 -23 -23 -25 -31 -19 -72 7 -54 28 -87 77 -120 29 -21 43 -23 99 -19
74 5 113 22 171 74 65 59 93 124 94 213 0 62 -5 85 -28 132 -34 70 -110 140
-174 162 -56 19 -174 20 -224 1z"/>
<path d="M4443 9875 c-5 -16 0 -129 13 -255 l5 -55 -89 -63 c-97 -69 -149
-117 -135 -125 14 -9 124 -35 200 -47 l72 -12 11 -56 c24 -122 56 -236 66
-239 12 -4 85 99 154 215 l43 73 158 -7 c133 -6 159 -5 159 7 0 8 -50 62 -111
121 l-112 107 52 119 c54 126 60 152 35 152 -8 0 -71 -23 -139 -51 l-124 -51
-68 54 c-60 48 -134 100 -171 122 -7 4 -15 1 -19 -9z m359 -143 c59 20 108 35
108 34 0 -2 -57 -55 -127 -118 -89 -79 -142 -119 -173 -130 -25 -9 -108 -39
-185 -67 -77 -27 -142 -48 -145 -45 -7 7 50 54 127 105 l63 41 92 -7 91 -7
-20 33 c-11 19 -52 87 -91 151 -40 65 -72 120 -72 123 0 4 50 -29 112 -71
l111 -77 109 35z m158 -303 c63 -55 117 -103 120 -106 5 -6 -402 196 -409 203
-2 2 36 4 85 4 l89 0 115 -101z"/>
<path d="M6771 9700 c-208 -56 -388 -238 -436 -441 -8 -35 -15 -75 -15 -89 l1
-25 29 32 c16 18 37 58 45 88 26 86 53 98 268 115 78 6 158 16 177 22 24 7 66
42 130 107 100 103 149 130 229 131 l36 1 -29 15 c-112 61 -301 80 -435 44z"/>
<path d="M7292 9314 c-74 -20 -105 -38 -174 -101 l-60 -55 -62 5 c-33 3 -93 9
-132 13 -79 7 -98 3 -339 -87 -199 -74 -204 -76 -198 -97 4 -18 12 -16 101 23
111 48 208 75 274 75 83 0 198 -13 198 -22 0 -26 -332 -157 -401 -159 -49 -1
-132 -22 -136 -34 -2 -6 2 -18 9 -28 12 -15 22 -15 143 9 71 14 181 43 245 64
125 42 214 60 300 60 34 0 64 6 78 16 12 8 41 52 64 97 79 159 114 184 249
174 l77 -5 -9 28 c-9 23 -17 28 -56 34 -67 9 -111 6 -171 -10z"/>
<path d="M8342 9204 c28 -28 48 -25 48 7 0 15 -7 19 -37 19 l-38 0 27 -26z"/>
<path d="M7118 8876 c-21 -7 -57 -31 -79 -51 l-42 -38 -146 7 c-122 6 -166 3
-270 -14 -68 -11 -130 -24 -139 -29 -12 -7 -1 -22 56 -79 126 -125 298 -190
469 -179 156 11 318 87 418 199 45 50 101 136 94 142 -2 2 -45 13 -95 24 -125
30 -220 36 -266 18z"/>
<path d="M3803 8703 c9 -2 25 -2 35 0 9 3 1 5 -18 5 -19 0 -27 -2 -17 -5z"/>
<path d="M4560 8379 c-30 -5 -95 -19 -144 -30 -79 -19 -95 -27 -132 -64 -121
-122 -36 -335 134 -335 22 0 76 11 119 24 131 41 193 50 333 50 163 -1 250
-21 386 -89 212 -107 366 -299 459 -577 63 -190 75 -288 85 -698 10 -413 23
-545 76 -760 56 -225 121 -378 225 -530 212 -310 543 -483 914 -478 l90 1 -80
7 c-44 4 -108 13 -142 19 -340 64 -616 294 -760 635 -100 235 -146 576 -123
906 6 85 13 196 17 245 l6 91 -32 31 c-45 45 -43 94 4 139 l36 33 -11 128
c-20 239 -74 438 -165 618 -174 344 -463 560 -844 630 -91 16 -356 19 -451 4z"/>
<path d="M9650 8080 c-41 -49 -41 -49 -23 -74 10 -14 21 -26 24 -26 3 0 14 30
25 68 18 66 19 66 25 32 l6 -35 2 37 c0 20 -3 39 -8 42 -5 3 -28 -16 -51 -44z"/>
<path d="M9502 8026 c6 -12 19 -33 30 -48 l19 -27 -36 -49 c-19 -27 -35 -52
-35 -54 0 -5 84 6 126 16 16 4 29 -6 58 -45 21 -27 40 -48 42 -46 3 3 -16 75
-41 158 -7 24 -7 24 21 -3 l29 -26 53 20 c28 10 52 23 52 27 0 4 -11 13 -25
19 -32 15 -45 15 -25 1 11 -7 -3 -9 -50 -6 -50 2 -79 11 -128 37 -35 18 -58
36 -52 40 6 4 -3 7 -19 7 -27 0 -29 -2 -19 -21z"/>
<path d="M9711 8014 c0 -11 3 -14 6 -6 3 7 2 16 -1 19 -3 4 -6 -2 -5 -13z"/>
<path d="M8496 7972 c-25 -15 -42 -16 -130 -9 -69 6 -106 5 -118 -2 -10 -6
-38 -11 -64 -11 -60 0 -105 -26 -98 -56 4 -17 -3 -26 -40 -48 -45 -26 -47 -26
-178 -20 -144 7 -264 -4 -389 -36 -40 -11 -75 -18 -77 -16 -1 2 41 29 95 59
117 67 131 77 117 77 -5 0 -61 -30 -124 -66 l-115 -65 -67 17 c-64 17 -68 17
-108 -1 -22 -10 -43 -22 -46 -27 -3 -5 6 -22 21 -39 14 -18 25 -33 23 -34 -2
-2 -31 -19 -65 -39 l-63 -37 -57 17 c-56 16 -57 16 -100 -7 -24 -13 -43 -27
-43 -31 0 -4 17 -27 39 -51 l38 -45 76 44 c42 24 79 48 82 54 12 19 23 10 36
-27 11 -33 10 -38 -10 -54 -12 -10 -27 -19 -34 -22 -9 -3 -9 -11 -2 -33 9 -24
17 -30 47 -32 35 -3 38 -6 48 -45 20 -76 31 -105 61 -161 28 -51 34 -56 64
-56 24 0 38 -6 45 -20 30 -56 119 -65 198 -19 60 34 92 78 92 127 0 37 -1 37
36 17 46 -24 93 -18 153 18 68 41 93 74 95 126 1 38 2 40 21 27 46 -30 88 -28
155 6 74 38 99 68 107 126 5 40 6 41 26 27 35 -25 106 -19 162 14 28 16 58 38
69 49 26 30 32 102 12 143 -9 19 -13 35 -9 36 4 2 23 12 41 23 35 22 42 56 19
97 -12 22 -13 22 -41 5z m34 -11 c0 -15 -29 -33 -41 -25 -9 5 -7 11 6 21 22
15 35 17 35 4z m-160 -95 c0 -16 -37 -32 -48 -21 -7 7 25 35 40 35 4 0 8 -6 8
-14z"/>
<path d="M9712 7845 c0 -16 2 -22 5 -12 2 9 2 23 0 30 -3 6 -5 -1 -5 -18z"/>
<path d="M8875 7735 c-30 -30 -32 -64 -4 -99 19 -24 27 -26 93 -26 92 0 128
-22 170 -103 43 -83 39 -135 -22 -348 -28 -96 -53 -196 -56 -224 l-7 -50 21
60 c12 33 50 121 85 195 88 187 99 224 93 318 -11 180 -129 302 -294 302 -45
0 -59 -4 -79 -25z"/>
<path d="M9601 7304 c-179 -48 -341 -208 -421 -416 -18 -46 -61 -195 -95 -333
-85 -337 -114 -411 -203 -519 -81 -98 -213 -187 -342 -232 -95 -33 -36 -29 69
5 105 33 193 81 276 148 125 101 185 213 305 568 96 282 141 375 227 466 143
151 307 179 431 74 47 -41 66 -90 59 -151 -9 -80 -87 -153 -150 -140 -16 3
-56 24 -89 46 -71 47 -117 52 -169 17 -77 -51 -88 -148 -24 -212 45 -44 146
-93 221 -106 159 -28 326 63 398 215 99 209 19 437 -189 536 -108 51 -201 62
-304 34z"/>
<path d="M4585 6691 c-154 -44 -284 -150 -351 -285 -33 -68 -38 -89 -42 -164
-5 -121 19 -185 102 -268 102 -101 210 -122 328 -61 137 71 184 235 102 359
-28 43 -62 56 -104 38 -47 -19 -55 -61 -24 -125 16 -35 23 -62 19 -78 -15 -57
-92 -104 -153 -92 -46 9 -126 85 -148 141 -68 178 115 423 354 473 182 38 382
-30 537 -184 120 -118 152 -191 241 -538 31 -120 25 -64 -10 109 -36 170 -59
252 -91 315 -37 72 -109 162 -173 215 -76 63 -221 137 -300 153 -78 16 -217
12 -287 -8z"/>
<path d="M8325 6501 c-11 -5 -29 -19 -41 -32 -12 -13 -231 -375 -488 -803
-455 -759 -475 -795 -433 -796 4 0 39 -21 78 -46 60 -40 73 -45 84 -33 7 8
222 364 479 792 513 857 497 824 439 886 -30 32 -84 47 -118 32z"/>
<path d="M6856 6431 c-4 -5 -9 -49 -12 -98 l-7 -89 -85 -44 c-77 -39 -83 -44
-67 -57 16 -11 67 -32 143 -58 8 -3 12 -29 13 -77 1 -40 4 -86 8 -102 l6 -29
80 85 80 86 70 -19 c72 -18 125 -24 125 -12 0 3 -25 39 -55 79 -30 40 -55 78
-55 83 0 6 20 42 45 80 25 38 45 72 45 75 0 9 -41 5 -95 -10 l-50 -13 50 4 50
5 -30 -19 c-16 -11 -59 -37 -94 -59 l-64 -40 39 -11 c21 -6 46 -11 56 -11 9 0
40 -28 69 -62 86 -102 88 -106 49 -77 -19 14 -76 56 -127 93 l-91 67 -117 -21
c-64 -12 -119 -19 -122 -16 -3 2 23 19 58 37 60 30 66 31 112 20 27 -6 52 -11
57 -11 4 0 -7 39 -25 88 -18 48 -36 96 -40 107 -4 11 23 -9 61 -45 75 -72 69
-55 -10 28 -51 53 -61 59 -70 43z"/>
<path d="M7018 6303 c7 -3 16 -2 19 1 4 3 -2 6 -13 5 -11 0 -14 -3 -6 -6z"/>
<path d="M8438 5773 c7 -3 16 -2 19 1 4 3 -2 6 -13 5 -11 0 -14 -3 -6 -6z"/>
<path d="M7288 4661 c-3 -23 0 -31 16 -35 11 -3 28 2 38 11 18 16 17 17 -9 35
-37 24 -40 23 -45 -11z"/>
<path d="M2656 4542 c-3 -5 1 -9 9 -9 8 0 12 4 9 9 -3 4 -7 8 -9 8 -2 0 -6 -4
-9 -8z"/>
<path d="M2703 4065 c0 -8 4 -12 9 -9 5 3 6 10 3 15 -9 13 -12 11 -12 -6z"/>
<path d="M2830 3680 l0 -310 7200 0 7200 0 0 310 0 310 -7200 0 -7200 0 0
-310z"/>
</g>
</svg>
